<?xml version="1.0"?>
<svg xmlns="http://www.w3.org/2000/svg" id="Layer_1" data-name="Layer 1" viewBox="0 0 156.43 43.2">
  <title>zicasso-logo</title>
  <polygon fill="#fff" points="0 42.42 13.04 23.11 1.62 23.11 1.62 19.45 19.87 19.45 19.87 19.73 6.84 38.97 19.52 38.97 19.52 42.63 0 42.63 0 42.42"/>
  <rect fill="#fff" x="25.37" y="19.45" width="4.37" height="23.18"/>
  <path fill="#fff" d="M35.58,31.07a11.84,11.84,0,0,1,12-12.18,11.62,11.62,0,0,1,9.17,3.73l-2.9,2.61a8.15,8.15,0,0,0-6.27-2.61c-4.51,0-7.46,3.66-7.46,8.45s2.95,8.39,7.46,8.39a8.88,8.88,0,0,0,6.84-2.89l2.89,2.54c-2.18,2.6-5.36,4.08-9.73,4.08a11.83,11.83,0,0,1-12-12.12"/>
  <path fill="#fff" d="M77.16,28.4c0-4.3-2.11-5.85-5.43-5.85a7.49,7.49,0,0,0-6.55,3.31l-2.75-2.39a11.05,11.05,0,0,1,9.44-4.58c5.92,0,9.58,3.09,9.58,9.51V42.63H77.16V40a8.92,8.92,0,0,1-7.26,3.17c-4.86,0-8.81-2.39-8.81-7.47,0-4.72,4.16-7.11,9.09-7.11h7V28.4Zm-6.7,3.66c-2.81,0-5.07,1.06-5.07,3.67s2,3.94,5.21,3.94c3.46,0,6.56-1.83,6.56-5.07V32.06Z"/>
  <path fill="#fff" d="M86.32,38.12l3.24-2.32a7.62,7.62,0,0,0,6.83,3.73c3,0,4.66-1.13,4.66-3.1s-1.63-2.82-5.64-4c-4.79-1.34-7.4-3.1-7.4-7.18,0-3.81,3.1-6.41,7.75-6.41a9.7,9.7,0,0,1,8.18,3.73l-3,2.54a6.07,6.07,0,0,0-5.14-2.61c-2.47,0-3.73,1.2-3.73,2.61,0,2,1.55,2.53,5.14,3.52,5.22,1.41,8,3.24,8,7.47s-3.31,7.05-8.81,7.05a11.59,11.59,0,0,1-10.07-5.08"/>
  <path fill="#fff" d="M108.73,38.12,112,35.8a7.62,7.62,0,0,0,6.83,3.73c3,0,4.65-1.13,4.65-3.1s-1.62-2.82-5.63-4c-4.8-1.34-7.4-3.1-7.4-7.18,0-3.81,3.1-6.41,7.75-6.41a9.66,9.66,0,0,1,8.17,3.73l-3,2.54a6.09,6.09,0,0,0-5.14-2.61c-2.47,0-3.74,1.2-3.74,2.61,0,2,1.55,2.53,5.15,3.52,5.21,1.41,8,3.24,8,7.47s-3.31,7.05-8.81,7.05a11.58,11.58,0,0,1-10.07-5.08"/>
  <path fill="#fff" d="M131.84,31.07a12.3,12.3,0,1,1,12.33,12.12,12,12,0,0,1-12.33-12.12m20.15,0c0-4.86-3.17-8.52-7.82-8.52s-7.82,3.66-7.82,8.52,3.17,8.46,7.82,8.46S152,35.87,152,31.07"/>
  <path fill="#ffcf01" d="M24.66,7.78a3,3,0,1,1,3,3,3,3,0,0,1-3-3"/>
  <path fill="#b5121b" d="M19.85,7.78a7.78,7.78,0,1,1,7.77,7.78,7.77,7.77,0,0,1-7.77-7.78m1.81,0a6,6,0,1,0,6-6,6,6,0,0,0-6,6"/>
</svg>
